<svg xmlns="http://www.w3.org/2000/svg" width="1061" height="790" fill="none"><g clip-path="url(#a)"><path fill="#F7FFFB" d="M0 0h1061v790H0z"/><g opacity=".2"><g filter="url(#b)"><rect width="1007" height="296.86" x="-45" y="261.662" fill="#656BFF" fill-opacity=".5" rx="148.43" transform="rotate(-27.544 -45 261.662)"/></g><g filter="url(#c)"><rect width="1007" height="296.86" x="55" y="789.662" fill="#F4FE68" fill-opacity=".5" rx="148.43" transform="rotate(-27.544 55 789.662)"/></g><g filter="url(#d)"><rect width="310" height="310" x="554" y="371" fill="#F4FCCC" rx="155"/></g></g><g fill="#fff" filter="url(#e)" transform="rotate(-27.544 -1 342.305)"><rect width="800.788" height="296.86" x="-1" y="342.305" rx="148.43"/><rect width="800.788" height="296.86" x="-1" y="342.305" rx="148.43"/></g><g fill="#fff" filter="url(#f)" transform="rotate(-27.544 -564 995.305)"><rect width="800.788" height="296.86" x="-564" y="995.305" rx="148.43"/><rect width="800.788" height="296.86" x="-564" y="995.305" rx="148.43"/></g><g fill="#fff" filter="url(#g)" transform="rotate(-27.544 253 855.305)"><rect width="800.788" height="296.86" x="253" y="855.305" rx="148.43"/><rect width="800.788" height="296.86" x="253" y="855.305" rx="148.43"/></g></g><defs><filter id="b" width="1926.57" height="1625.31" x="-493.216" y="-652.217" color-interpolation-filters="sRGB" filterUnits="userSpaceOnUse"><feFlood flood-opacity="0" result="BackgroundImageFix"/><feBlend in="SourceGraphic" in2="BackgroundImageFix" result="shape"/><feGaussianBlur result="effect1_foregroundBlur_1539_19633" stdDeviation="250"/></filter><filter id="c" width="1926.57" height="1625.31" x="-393.216" y="-124.217" color-interpolation-filters="sRGB" filterUnits="userSpaceOnUse"><feFlood flood-opacity="0" result="BackgroundImageFix"/><feBlend in="SourceGraphic" in2="BackgroundImageFix" result="shape"/><feGaussianBlur result="effect1_foregroundBlur_1539_19633" stdDeviation="250"/></filter><filter id="d" width="710" height="710" x="354" y="171" color-interpolation-filters="sRGB" filterUnits="userSpaceOnUse"><feFlood flood-opacity="0" result="BackgroundImageFix"/><feBlend in="SourceGraphic" in2="BackgroundImageFix" result="shape"/><feGaussianBlur result="effect1_foregroundBlur_1539_19633" stdDeviation="100"/></filter><filter id="e" width="1743.73" height="1529.95" x="-449.216" y="-476.217" color-interpolation-filters="sRGB" filterUnits="userSpaceOnUse"><feFlood flood-opacity="0" result="BackgroundImageFix"/><feBlend in="SourceGraphic" in2="BackgroundImageFix" result="shape"/><feGaussianBlur result="effect1_foregroundBlur_1539_19633" stdDeviation="250"/></filter><filter id="f" width="1743.73" height="1529.95" x="-1012.22" y="176.783" color-interpolation-filters="sRGB" filterUnits="userSpaceOnUse"><feFlood flood-opacity="0" result="BackgroundImageFix"/><feBlend in="SourceGraphic" in2="BackgroundImageFix" result="shape"/><feGaussianBlur result="effect1_foregroundBlur_1539_19633" stdDeviation="250"/></filter><filter id="g" width="1743.73" height="1529.95" x="-195.216" y="36.783" color-interpolation-filters="sRGB" filterUnits="userSpaceOnUse"><feFlood flood-opacity="0" result="BackgroundImageFix"/><feBlend in="SourceGraphic" in2="BackgroundImageFix" result="shape"/><feGaussianBlur result="effect1_foregroundBlur_1539_19633" stdDeviation="250"/></filter><clipPath id="a"><path fill="#fff" d="M0 0h1061v790H0z"/></clipPath></defs></svg>